# xmcd CD database file
#
# Track frame offsets:
#	150
#	30911
#	50952
#	81255
#	112711
#	139204
#	159780
#
# Disc length: 2268 seconds
#
# Revision: 0
# Processed by: cddbd v1.5.2PL0 Copyright (c) Steve Scherf et al.
# Submitted via: CDex 1.70beta2
#
DISCID=4d08da07
DTITLE=Gaspard Glaus - Voice of Zak
DYEAR=1900
DGENRE=Jazz
TTITLE0=Satuna
TTITLE1=Blues on the Rocks
TTITLE2=For Aline
TTITLE3=Voice of Zak
TTITLE4=Family (solo piano)
TTITLE5=Les heures bleues
TTITLE6=Snuk Song (solo piano)
EXTD=
EXTT0=
EXTT1=
EXTT2=
EXTT3=
EXTT4=
EXTT5=
EXTT6=
PLAYORDER=
